<?xml version="1.0" encoding="UTF-8" standalone="no"?><svg xmlns="http://www.w3.org/2000/svg" xmlns:xlink="http://www.w3.org/1999/xlink" contentStyleType="text/css" height="643px" preserveAspectRatio="none" style="width:320px;height:643px;background:#FFFFFF;" version="1.1" viewBox="0 0 320 643" width="320px" zoomAndPan="magnify"><defs/><g><!--MD5=[e622316b106dea01425bb051794a93e0]
cluster latlong--><g id="cluster_latlong"><path d="M64.5,313 L113.5,313 A3.75,3.75 0 0 1 116,315.5 L123,336.6094 L231.5,336.6094 A2.5,2.5 0 0 1 234,339.1094 L234,633.5 A2.5,2.5 0 0 1 231.5,636 L64.5,636 A2.5,2.5 0 0 1 62,633.5 L62,315.5 A2.5,2.5 0 0 1 64.5,313 " fill="none" style="stroke:#000000;stroke-width:1.5;"/><line style="stroke:#000000;stroke-width:1.5;" x1="62" x2="123" y1="336.6094" y2="336.6094"/><text fill="#000000" font-family="sans-serif" font-size="14" font-weight="bold" lengthAdjust="spacing" textLength="48" x="66" y="329.5332">latlong</text></g><!--MD5=[37c65e61f43eaa97ca5fd6a620816d26]
cluster geojson--><g id="cluster_geojson"><path d="M8.5,6 L66.5,6 A3.75,3.75 0 0 1 69,8.5 L76,29.6094 L310.5,29.6094 A2.5,2.5 0 0 1 313,32.1094 L313,286.5 A2.5,2.5 0 0 1 310.5,289 L8.5,289 A2.5,2.5 0 0 1 6,286.5 L6,8.5 A2.5,2.5 0 0 1 8.5,6 " fill="none" style="stroke:#000000;stroke-width:1.5;"/><line style="stroke:#000000;stroke-width:1.5;" x1="6" x2="76" y1="29.6094" y2="29.6094"/><text fill="#000000" font-family="sans-serif" font-size="14" font-weight="bold" lengthAdjust="spacing" textLength="57" x="10" y="22.5332">geojson</text></g><!--MD5=[2ae1951aede16c8b409fd392d993d863]
class latlong::LatLong--><g id="elem_latlong::LatLong"><rect codeLine="14" fill="#F1F1F1" height="83.2188" id="latlong::LatLong" rx="2.5" ry="2.5" style="stroke:#181818;stroke-width:0.5;" width="84" x="106" y="517"/><ellipse cx="121" cy="533" fill="#ADD1B2" rx="11" ry="11" style="stroke:#181818;stroke-width:1.0;"/><path d="M123.7656,528.875 Q123.9219,528.6563 124.1094,528.5469 Q124.2969,528.4375 124.5156,528.4375 Q124.8906,528.4375 125.125,528.6953 Q125.3594,528.9531 125.3594,529.5625 L125.3594,531.0156 Q125.3594,531.625 125.125,531.8906 Q124.8906,532.1563 124.5156,532.1563 Q124.1719,532.1563 123.9688,531.9531 Q123.7656,531.7656 123.6563,531.25 Q123.6094,530.8906 123.4219,530.7031 Q123.0938,530.3281 122.4844,530.1094 Q121.875,529.8906 121.25,529.8906 Q120.4844,529.8906 119.8516,530.2188 Q119.2188,530.5469 118.7266,531.2969 Q118.2344,532.0469 118.2344,533.0781 L118.2344,534.1719 Q118.2344,535.4063 119.125,536.2266 Q120.0156,537.0469 121.6094,537.0469 Q122.5469,537.0469 123.2031,536.7969 Q123.5938,536.6406 124.0156,536.2031 Q124.2813,535.9375 124.4297,535.8594 Q124.5781,535.7813 124.7813,535.7813 Q125.1094,535.7813 125.3672,536.0391 Q125.625,536.2969 125.625,536.6406 Q125.625,536.9844 125.2813,537.3906 Q124.7813,537.9688 123.9844,538.2969 Q122.9063,538.75 121.6094,538.75 Q120.0938,538.75 118.8906,538.125 Q117.9063,537.625 117.2188,536.5547 Q116.5313,535.4844 116.5313,534.2031 L116.5313,533.0469 Q116.5313,531.7188 117.1484,530.5703 Q117.7656,529.4219 118.8594,528.8047 Q119.9531,528.1875 121.1875,528.1875 Q121.9219,528.1875 122.5703,528.3516 Q123.2188,528.5156 123.7656,528.875 Z " fill="#000000"/><text fill="#000000" font-family="sans-serif" font-size="14" lengthAdjust="spacing" textLength="52" x="135" y="538.7285">LatLong</text><line style="stroke:#181818;stroke-width:0.5;" x1="107" x2="189" y1="549" y2="549"/><rect fill="none" height="6" style="stroke:#C82930;stroke-width:1.0;" width="6" x="114" y="560.3047"/><text fill="#000000" font-family="sans-serif" font-size="14" lengthAdjust="spacing" textLength="15" x="126" y="567.5332">lat</text><rect fill="none" height="6" style="stroke:#C82930;stroke-width:1.0;" width="6" x="114" y="577.9141"/><text fill="#000000" font-family="sans-serif" font-size="14" lengthAdjust="spacing" textLength="19" x="126" y="585.1426">lon</text><line style="stroke:#181818;stroke-width:0.5;" x1="107" x2="189" y1="592.2188" y2="592.2188"/></g><!--MD5=[e5cc761b179243d731727e21c0f86b96]
class latlong::LatLongs--><g id="elem_latlong::LatLongs"><rect fill="#F1F1F1" height="48" id="latlong::LatLongs" rx="2.5" ry="2.5" style="stroke:#181818;stroke-width:0.5;" width="91" x="102.5" y="369"/><ellipse cx="117.5" cy="385" fill="#ADD1B2" rx="11" ry="11" style="stroke:#181818;stroke-width:1.0;"/><path d="M120.2656,380.875 Q120.4219,380.6563 120.6094,380.5469 Q120.7969,380.4375 121.0156,380.4375 Q121.3906,380.4375 121.625,380.6953 Q121.8594,380.9531 121.8594,381.5625 L121.8594,383.0156 Q121.8594,383.625 121.625,383.8906 Q121.3906,384.1563 121.0156,384.1563 Q120.6719,384.1563 120.4688,383.9531 Q120.2656,383.7656 120.1563,383.25 Q120.1094,382.8906 119.9219,382.7031 Q119.5938,382.3281 118.9844,382.1094 Q118.375,381.8906 117.75,381.8906 Q116.9844,381.8906 116.3516,382.2188 Q115.7188,382.5469 115.2266,383.2969 Q114.7344,384.0469 114.7344,385.0781 L114.7344,386.1719 Q114.7344,387.4063 115.625,388.2266 Q116.5156,389.0469 118.1094,389.0469 Q119.0469,389.0469 119.7031,388.7969 Q120.0938,388.6406 120.5156,388.2031 Q120.7813,387.9375 120.9297,387.8594 Q121.0781,387.7813 121.2813,387.7813 Q121.6094,387.7813 121.8672,388.0391 Q122.125,388.2969 122.125,388.6406 Q122.125,388.9844 121.7813,389.3906 Q121.2813,389.9688 120.4844,390.2969 Q119.4063,390.75 118.1094,390.75 Q116.5938,390.75 115.3906,390.125 Q114.4063,389.625 113.7188,388.5547 Q113.0313,387.4844 113.0313,386.2031 L113.0313,385.0469 Q113.0313,383.7188 113.6484,382.5703 Q114.2656,381.4219 115.3594,380.8047 Q116.4531,380.1875 117.6875,380.1875 Q118.4219,380.1875 119.0703,380.3516 Q119.7188,380.5156 120.2656,380.875 Z " fill="#000000"/><text fill="#000000" font-family="sans-serif" font-size="14" lengthAdjust="spacing" textLength="59" x="131.5" y="390.7285">LatLongs</text><line style="stroke:#181818;stroke-width:0.5;" x1="103.5" x2="192.5" y1="401" y2="401"/><line style="stroke:#181818;stroke-width:0.5;" x1="103.5" x2="192.5" y1="409" y2="409"/></g><!--MD5=[71a3d582d40ce8acf979ec849890b4ef]
class geojson::Polygon--><g id="elem_geojson::Polygon"><rect codeLine="9" fill="#F1F1F1" height="83.2188" id="geojson::Polygon" rx="2.5" ry="2.5" style="stroke:#181818;stroke-width:0.5;" width="83" x="61.5" y="170"/><ellipse cx="76.5" cy="186" fill="#ADD1B2" rx="11" ry="11" style="stroke:#181818;stroke-width:1.0;"/><path d="M79.2656,181.875 Q79.4219,181.6563 79.6094,181.5469 Q79.7969,181.4375 80.0156,181.4375 Q80.3906,181.4375 80.625,181.6953 Q80.8594,181.9531 80.8594,182.5625 L80.8594,184.0156 Q80.8594,184.625 80.625,184.8906 Q80.3906,185.1563 80.0156,185.1563 Q79.6719,185.1563 79.4688,184.9531 Q79.2656,184.7656 79.1563,184.25 Q79.1094,183.8906 78.9219,183.7031 Q78.5938,183.3281 77.9844,183.1094 Q77.375,182.8906 76.75,182.8906 Q75.9844,182.8906 75.3516,183.2188 Q74.7188,183.5469 74.2266,184.2969 Q73.7344,185.0469 73.7344,186.0781 L73.7344,187.1719 Q73.7344,188.4063 74.625,189.2266 Q75.5156,190.0469 77.1094,190.0469 Q78.0469,190.0469 78.7031,189.7969 Q79.0938,189.6406 79.5156,189.2031 Q79.7813,188.9375 79.9297,188.8594 Q80.0781,188.7813 80.2813,188.7813 Q80.6094,188.7813 80.8672,189.0391 Q81.125,189.2969 81.125,189.6406 Q81.125,189.9844 80.7813,190.3906 Q80.2813,190.9688 79.4844,191.2969 Q78.4063,191.75 77.1094,191.75 Q75.5938,191.75 74.3906,191.125 Q73.4063,190.625 72.7188,189.5547 Q72.0313,188.4844 72.0313,187.2031 L72.0313,186.0469 Q72.0313,184.7188 72.6484,183.5703 Q73.2656,182.4219 74.3594,181.8047 Q75.4531,181.1875 76.6875,181.1875 Q77.4219,181.1875 78.0703,181.3516 Q78.7188,181.5156 79.2656,181.875 Z " fill="#000000"/><text fill="#000000" font-family="sans-serif" font-size="14" lengthAdjust="spacing" textLength="51" x="90.5" y="191.7285">Polygon</text><line style="stroke:#181818;stroke-width:0.5;" x1="62.5" x2="143.5" y1="202" y2="202"/><ellipse cx="72.5" cy="216.3047" fill="none" rx="3" ry="3" style="stroke:#038048;stroke-width:1.0;"/><text fill="#000000" font-family="sans-serif" font-size="14" lengthAdjust="spacing" textLength="47" x="81.5" y="220.5332">exterior</text><ellipse cx="72.5" cy="233.9141" fill="none" rx="3" ry="3" style="stroke:#038048;stroke-width:1.0;"/><text fill="#000000" font-family="sans-serif" font-size="14" lengthAdjust="spacing" textLength="51" x="81.5" y="238.1426">interiors</text><line style="stroke:#181818;stroke-width:0.5;" x1="62.5" x2="143.5" y1="245.2188" y2="245.2188"/></g><!--MD5=[646658e129c99a14604ff66089977cae]
class geojson::MultiPolygons--><g id="elem_geojson::MultiPolygons"><rect fill="#F1F1F1" height="48" id="geojson::MultiPolygons" rx="2.5" ry="2.5" style="stroke:#181818;stroke-width:0.5;" width="119" x="22.5" y="42"/><ellipse cx="37.5" cy="58" fill="#ADD1B2" rx="11" ry="11" style="stroke:#181818;stroke-width:1.0;"/><path d="M40.2656,53.875 Q40.4219,53.6563 40.6094,53.5469 Q40.7969,53.4375 41.0156,53.4375 Q41.3906,53.4375 41.625,53.6953 Q41.8594,53.9531 41.8594,54.5625 L41.8594,56.0156 Q41.8594,56.625 41.625,56.8906 Q41.3906,57.1563 41.0156,57.1563 Q40.6719,57.1563 40.4688,56.9531 Q40.2656,56.7656 40.1563,56.25 Q40.1094,55.8906 39.9219,55.7031 Q39.5938,55.3281 38.9844,55.1094 Q38.375,54.8906 37.75,54.8906 Q36.9844,54.8906 36.3516,55.2188 Q35.7188,55.5469 35.2266,56.2969 Q34.7344,57.0469 34.7344,58.0781 L34.7344,59.1719 Q34.7344,60.4063 35.625,61.2266 Q36.5156,62.0469 38.1094,62.0469 Q39.0469,62.0469 39.7031,61.7969 Q40.0938,61.6406 40.5156,61.2031 Q40.7813,60.9375 40.9297,60.8594 Q41.0781,60.7813 41.2813,60.7813 Q41.6094,60.7813 41.8672,61.0391 Q42.125,61.2969 42.125,61.6406 Q42.125,61.9844 41.7813,62.3906 Q41.2813,62.9688 40.4844,63.2969 Q39.4063,63.75 38.1094,63.75 Q36.5938,63.75 35.3906,63.125 Q34.4063,62.625 33.7188,61.5547 Q33.0313,60.4844 33.0313,59.2031 L33.0313,58.0469 Q33.0313,56.7188 33.6484,55.5703 Q34.2656,54.4219 35.3594,53.8047 Q36.4531,53.1875 37.6875,53.1875 Q38.4219,53.1875 39.0703,53.3516 Q39.7188,53.5156 40.2656,53.875 Z " fill="#000000"/><text fill="#000000" font-family="sans-serif" font-size="14" lengthAdjust="spacing" textLength="87" x="51.5" y="63.7285">MultiPolygons</text><line style="stroke:#181818;stroke-width:0.5;" x1="23.5" x2="140.5" y1="74" y2="74"/><line style="stroke:#181818;stroke-width:0.5;" x1="23.5" x2="140.5" y1="82" y2="82"/></g><!--MD5=[76bbfef7844c27c9d0eafd3f33e29dd4]
class geojson::MultiLatLongs--><g id="elem_geojson::MultiLatLongs"><rect fill="#F1F1F1" height="48" id="geojson::MultiLatLongs" rx="2.5" ry="2.5" style="stroke:#181818;stroke-width:0.5;" width="120" x="177" y="42"/><ellipse cx="192" cy="58" fill="#ADD1B2" rx="11" ry="11" style="stroke:#181818;stroke-width:1.0;"/><path d="M194.7656,53.875 Q194.9219,53.6563 195.1094,53.5469 Q195.2969,53.4375 195.5156,53.4375 Q195.8906,53.4375 196.125,53.6953 Q196.3594,53.9531 196.3594,54.5625 L196.3594,56.0156 Q196.3594,56.625 196.125,56.8906 Q195.8906,57.1563 195.5156,57.1563 Q195.1719,57.1563 194.9688,56.9531 Q194.7656,56.7656 194.6563,56.25 Q194.6094,55.8906 194.4219,55.7031 Q194.0938,55.3281 193.4844,55.1094 Q192.875,54.8906 192.25,54.8906 Q191.4844,54.8906 190.8516,55.2188 Q190.2188,55.5469 189.7266,56.2969 Q189.2344,57.0469 189.2344,58.0781 L189.2344,59.1719 Q189.2344,60.4063 190.125,61.2266 Q191.0156,62.0469 192.6094,62.0469 Q193.5469,62.0469 194.2031,61.7969 Q194.5938,61.6406 195.0156,61.2031 Q195.2813,60.9375 195.4297,60.8594 Q195.5781,60.7813 195.7813,60.7813 Q196.1094,60.7813 196.3672,61.0391 Q196.625,61.2969 196.625,61.6406 Q196.625,61.9844 196.2813,62.3906 Q195.7813,62.9688 194.9844,63.2969 Q193.9063,63.75 192.6094,63.75 Q191.0938,63.75 189.8906,63.125 Q188.9063,62.625 188.2188,61.5547 Q187.5313,60.4844 187.5313,59.2031 L187.5313,58.0469 Q187.5313,56.7188 188.1484,55.5703 Q188.7656,54.4219 189.8594,53.8047 Q190.9531,53.1875 192.1875,53.1875 Q192.9219,53.1875 193.5703,53.3516 Q194.2188,53.5156 194.7656,53.875 Z " fill="#000000"/><text fill="#000000" font-family="sans-serif" font-size="14" lengthAdjust="spacing" textLength="88" x="206" y="63.7285">MultiLatLongs</text><line style="stroke:#181818;stroke-width:0.5;" x1="178" x2="296" y1="74" y2="74"/><line style="stroke:#181818;stroke-width:0.5;" x1="178" x2="296" y1="82" y2="82"/></g><!--MD5=[c96c06921bc2a5e48b317177c33fa97e]
reverse link geojson::MultiPolygons to geojson::Polygon--><g id="link_geojson::MultiPolygons_geojson::Polygon"><path codeLine="19" d="M87.52,104.69 C90.46,124.78 94.08,149.52 97.08,170.02 " fill="none" id="geojson::MultiPolygons-backto-geojson::Polygon" style="stroke:#181818;stroke-width:1.0;"/><polygon fill="#181818" points="85.64,91.87,82.5459,98.3836,87.3685,103.7449,90.4625,97.2313,85.64,91.87" style="stroke:#181818;stroke-width:1.0;"/><text fill="#000000" font-family="sans-serif" font-size="13" lengthAdjust="spacing" textLength="20" x="74.3438" y="159.0222">1..*</text></g><!--MD5=[9ebdaca46982fb44560d67843fffd8cd]
reverse link geojson::Polygon to latlong::LatLongs--><g id="link_geojson::Polygon_latlong::LatLongs"><path codeLine="20" d="M116.52,266.42 C125.12,300.73 135.81,343.39 142.26,369.12 " fill="none" id="geojson::Polygon-backto-latlong::LatLongs" style="stroke:#181818;stroke-width:1.0;"/><polygon fill="#181818" points="113.47,254.25,111.0537,261.0442,116.3959,265.8878,118.8122,259.0936,113.47,254.25" style="stroke:#181818;stroke-width:1.0;"/><text fill="#000000" font-family="sans-serif" font-size="13" lengthAdjust="spacing" textLength="20" x="118.0299" y="358.0946">1..*</text></g><!--MD5=[081cac7a7fe4ffacfff11c868e88141d]
reverse link geojson::MultiLatLongs to latlong::LatLongs--><g id="link_geojson::MultiLatLongs_latlong::LatLongs"><path codeLine="21" d="M230.64,104.37 C222.4,150.28 206.59,230.29 186,297 C178.19,322.29 166.6,350.32 158.28,369.34 " fill="none" id="geojson::MultiLatLongs-backto-latlong::LatLongs" style="stroke:#181818;stroke-width:1.0;"/><polygon fill="#181818" points="232.89,91.66,227.9088,96.8742,230.8061,103.4777,235.7873,98.2635,232.89,91.66" style="stroke:#181818;stroke-width:1.0;"/><text fill="#000000" font-family="sans-serif" font-size="13" lengthAdjust="spacing" textLength="20" x="138.721" y="358.4475">1..*</text></g><!--MD5=[eb8b840d1d55d8430c8e7ade697809b0]
reverse link latlong::LatLongs to latlong::LatLong--><g id="link_latlong::LatLongs_latlong::LatLong"><path codeLine="22" d="M148,431.08 C148,456.68 148,490.72 148,517.03 " fill="none" id="latlong::LatLongs-backto-latlong::LatLong" style="stroke:#181818;stroke-width:1.0;"/><polygon fill="#181818" points="148,418.25,144,424.25,148,430.25,152,424.25,148,418.25" style="stroke:#181818;stroke-width:1.0;"/><text fill="#000000" font-family="sans-serif" font-size="13" lengthAdjust="spacing" textLength="20" x="126.2813" y="506.0339">2..*</text></g><!--MD5=[afb7e7e2d4998caf7270a0cb5cf0f768]
@startuml

'Copyright (c) 2024 Via Technology Ltd. All Rights Reserved.

' title LatLong Class Diagram

set namespaceSeparator ::

    namespace latlong {
        class geojson::Polygon {
            + exterior
            + interiors
        }
        
        class LatLong {
            - lat
            - lon
        }

        geojson::MultiPolygons *- - "1..*" geojson::Polygon
        geojson::Polygon   *- - "1..*" LatLongs
        geojson::MultiLatLongs *- - "1..*" LatLongs
        LatLongs *- - "2..*" LatLong
    }
@enduml

@startuml



set namespaceSeparator ::

    namespace latlong {
        class geojson::Polygon {
            + exterior
            + interiors
        }
        
        class LatLong {
            - lat
            - lon
        }

        geojson::MultiPolygons *- - "1..*" geojson::Polygon
        geojson::Polygon   *- - "1..*" LatLongs
        geojson::MultiLatLongs *- - "1..*" LatLongs
        LatLongs *- - "2..*" LatLong
    }
@enduml

PlantUML version 1.2022.8(Sun Sep 25 10:00:33 BST 2022)
(GPL source distribution)
Java Runtime: Java(TM) SE Runtime Environment
JVM: Java HotSpot(TM) Client VM
Default Encoding: Cp1252
Language: en
Country: GB
--></g></svg>