<?xml version="1.0" encoding="UTF-8" standalone="no"?><svg xmlns="http://www.w3.org/2000/svg" xmlns:xlink="http://www.w3.org/1999/xlink" contentStyleType="text/css" height="748px" preserveAspectRatio="none" style="width:486px;height:748px;background:#FFFFFF;" version="1.1" viewBox="0 0 486 748" width="486px" zoomAndPan="magnify"><defs/><g><!--MD5=[9b30860c66e8b03f6785e687c4a202c0]
cluster sphere--><g id="cluster_sphere"><path d="M8.5,63.82 L59.5,63.82 A3.75,3.75 0 0 1 62,66.32 L69,87.4294 L288.5,87.4294 A2.5,2.5 0 0 1 291,89.9294 L291,431.76 A2.5,2.5 0 0 1 288.5,434.26 L8.5,434.26 A2.5,2.5 0 0 1 6,431.76 L6,66.32 A2.5,2.5 0 0 1 8.5,63.82 " fill="none" style="stroke:#000000;stroke-width:1.5;"/><line style="stroke:#000000;stroke-width:1.5;" x1="6" x2="69" y1="87.4294" y2="87.4294"/><text fill="#000000" font-family="sans-serif" font-size="14" font-weight="bold" lengthAdjust="spacing" textLength="50" x="10" y="80.3532">sphere</text></g><!--MD5=[e622316b106dea01425bb051794a93e0]
cluster latlong--><g id="cluster_latlong"><path d="M317.5,99.04 L366.5,99.04 A3.75,3.75 0 0 1 369,101.54 L376,122.6494 L476.5,122.6494 A2.5,2.5 0 0 1 479,125.1494 L479,423.26 A2.5,2.5 0 0 1 476.5,425.76 L317.5,425.76 A2.5,2.5 0 0 1 315,423.26 L315,101.54 A2.5,2.5 0 0 1 317.5,99.04 " fill="none" style="stroke:#000000;stroke-width:1.5;"/><line style="stroke:#000000;stroke-width:1.5;" x1="315" x2="376" y1="122.6494" y2="122.6494"/><text fill="#000000" font-family="sans-serif" font-size="14" font-weight="bold" lengthAdjust="spacing" textLength="48" x="319" y="115.5732">latlong</text></g><!--MD5=[9710e789efdd1d62600536e5f97d9475]
cluster trig--><g id="cluster_trig"><path d="M157.5,458.26 L182.5,458.26 A3.75,3.75 0 0 1 185,460.76 L192,481.8694 L475.5,481.8694 A2.5,2.5 0 0 1 478,484.3694 L478,738.98 A2.5,2.5 0 0 1 475.5,741.48 L157.5,741.48 A2.5,2.5 0 0 1 155,738.98 L155,460.76 A2.5,2.5 0 0 1 157.5,458.26 " fill="none" style="stroke:#000000;stroke-width:1.5;"/><line style="stroke:#000000;stroke-width:1.5;" x1="155" x2="192" y1="481.8694" y2="481.8694"/><text fill="#000000" font-family="sans-serif" font-size="14" font-weight="bold" lengthAdjust="spacing" textLength="24" x="159" y="474.7932">trig</text></g><!--MD5=[376a1818cd793795aaaf8054aabc5c19]
class sphere::ArcString--><g id="elem_sphere::ArcString"><rect codeLine="9" fill="#F1F1F1" height="100.8281" id="sphere::ArcString" rx="2.5" ry="2.5" style="stroke:#181818;stroke-width:0.5;" width="100" x="45" y="108.63"/><ellipse cx="64.5" cy="124.63" fill="#ADD1B2" rx="11" ry="11" style="stroke:#181818;stroke-width:1.0;"/><path d="M67.2656,120.505 Q67.4219,120.2863 67.6094,120.1769 Q67.7969,120.0675 68.0156,120.0675 Q68.3906,120.0675 68.625,120.3253 Q68.8594,120.5831 68.8594,121.1925 L68.8594,122.6456 Q68.8594,123.255 68.625,123.5206 Q68.3906,123.7863 68.0156,123.7863 Q67.6719,123.7863 67.4688,123.5831 Q67.2656,123.3956 67.1563,122.88 Q67.1094,122.5206 66.9219,122.3331 Q66.5938,121.9581 65.9844,121.7394 Q65.375,121.5206 64.75,121.5206 Q63.9844,121.5206 63.3516,121.8488 Q62.7188,122.1769 62.2266,122.9269 Q61.7344,123.6769 61.7344,124.7081 L61.7344,125.8019 Q61.7344,127.0363 62.625,127.8566 Q63.5156,128.6769 65.1094,128.6769 Q66.0469,128.6769 66.7031,128.4269 Q67.0938,128.2706 67.5156,127.8331 Q67.7813,127.5675 67.9297,127.4894 Q68.0781,127.4113 68.2813,127.4113 Q68.6094,127.4113 68.8672,127.6691 Q69.125,127.9269 69.125,128.2706 Q69.125,128.6144 68.7813,129.0206 Q68.2813,129.5988 67.4844,129.9269 Q66.4063,130.38 65.1094,130.38 Q63.5938,130.38 62.3906,129.755 Q61.4063,129.255 60.7188,128.1847 Q60.0313,127.1144 60.0313,125.8331 L60.0313,124.6769 Q60.0313,123.3488 60.6484,122.2003 Q61.2656,121.0519 62.3594,120.4347 Q63.4531,119.8175 64.6875,119.8175 Q65.4219,119.8175 66.0703,119.9816 Q66.7188,120.1456 67.2656,120.505 Z " fill="#000000"/><text fill="#000000" font-family="sans-serif" font-size="14" lengthAdjust="spacing" textLength="58" x="79.5" y="130.3585">ArcString</text><line style="stroke:#181818;stroke-width:0.5;" x1="46" x2="144" y1="140.63" y2="140.63"/><rect fill="none" height="6" style="stroke:#C82930;stroke-width:1.0;" width="6" x="53" y="151.9347"/><text fill="#000000" font-family="sans-serif" font-size="14" lengthAdjust="spacing" textLength="38" x="65" y="159.1632">points</text><rect fill="none" height="6" style="stroke:#C82930;stroke-width:1.0;" width="6" x="53" y="169.5441"/><text fill="#000000" font-family="sans-serif" font-size="14" lengthAdjust="spacing" textLength="34" x="65" y="176.7726">poles</text><rect fill="none" height="6" style="stroke:#C82930;stroke-width:1.0;" width="6" x="53" y="187.1534"/><text fill="#000000" font-family="sans-serif" font-size="14" lengthAdjust="spacing" textLength="74" x="65" y="194.382">arc_lengths</text><line style="stroke:#181818;stroke-width:0.5;" x1="46" x2="144" y1="201.4581" y2="201.4581"/></g><!--MD5=[1f5dcbd495676620fdc20af9b47cbd09]
class sphere::Arc--><g id="elem_sphere::Arc"><rect codeLine="14" fill="#F1F1F1" height="118.4375" id="sphere::Arc" rx="2.5" ry="2.5" style="stroke:#181818;stroke-width:0.5;" width="89" x="180.5" y="99.82"/><ellipse cx="211.7" cy="115.82" fill="#ADD1B2" rx="11" ry="11" style="stroke:#181818;stroke-width:1.0;"/><path d="M214.4656,111.695 Q214.6219,111.4763 214.8094,111.3669 Q214.9969,111.2575 215.2156,111.2575 Q215.5906,111.2575 215.825,111.5153 Q216.0594,111.7731 216.0594,112.3825 L216.0594,113.8356 Q216.0594,114.445 215.825,114.7106 Q215.5906,114.9763 215.2156,114.9763 Q214.8719,114.9763 214.6688,114.7731 Q214.4656,114.5856 214.3563,114.07 Q214.3094,113.7106 214.1219,113.5231 Q213.7938,113.1481 213.1844,112.9294 Q212.575,112.7106 211.95,112.7106 Q211.1844,112.7106 210.5516,113.0388 Q209.9188,113.3669 209.4266,114.1169 Q208.9344,114.8669 208.9344,115.8981 L208.9344,116.9919 Q208.9344,118.2263 209.825,119.0466 Q210.7156,119.8669 212.3094,119.8669 Q213.2469,119.8669 213.9031,119.6169 Q214.2938,119.4606 214.7156,119.0231 Q214.9813,118.7575 215.1297,118.6794 Q215.2781,118.6013 215.4813,118.6013 Q215.8094,118.6013 216.0672,118.8591 Q216.325,119.1169 216.325,119.4606 Q216.325,119.8044 215.9813,120.2106 Q215.4813,120.7888 214.6844,121.1169 Q213.6063,121.57 212.3094,121.57 Q210.7938,121.57 209.5906,120.945 Q208.6063,120.445 207.9188,119.3747 Q207.2313,118.3044 207.2313,117.0231 L207.2313,115.8669 Q207.2313,114.5388 207.8484,113.3903 Q208.4656,112.2419 209.5594,111.6247 Q210.6531,111.0075 211.8875,111.0075 Q212.6219,111.0075 213.2703,111.1716 Q213.9188,111.3356 214.4656,111.695 Z " fill="#000000"/><text fill="#000000" font-family="sans-serif" font-size="14" lengthAdjust="spacing" textLength="21" x="229.3" y="121.5485">Arc</text><line style="stroke:#181818;stroke-width:0.5;" x1="181.5" x2="268.5" y1="131.82" y2="131.82"/><rect fill="none" height="6" style="stroke:#C82930;stroke-width:1.0;" width="6" x="188.5" y="143.1247"/><text fill="#000000" font-family="sans-serif" font-size="14" lengthAdjust="spacing" textLength="8" x="200.5" y="150.3532">a</text><rect fill="none" height="6" style="stroke:#C82930;stroke-width:1.0;" width="6" x="188.5" y="160.7341"/><text fill="#000000" font-family="sans-serif" font-size="14" lengthAdjust="spacing" textLength="27" x="200.5" y="167.9626">pole</text><rect fill="none" height="6" style="stroke:#C82930;stroke-width:1.0;" width="6" x="188.5" y="178.3434"/><text fill="#000000" font-family="sans-serif" font-size="14" lengthAdjust="spacing" textLength="39" x="200.5" y="185.572">length</text><rect fill="none" height="6" style="stroke:#C82930;stroke-width:1.0;" width="6" x="188.5" y="195.9528"/><text fill="#000000" font-family="sans-serif" font-size="14" lengthAdjust="spacing" textLength="63" x="200.5" y="203.1813">half_width</text><line style="stroke:#181818;stroke-width:0.5;" x1="181.5" x2="268.5" y1="210.2575" y2="210.2575"/></g><!--MD5=[613bd80e7764c5bac6f3a3d6f2d1a3e9]
class sphere::Point--><g id="elem_sphere::Point"><rect codeLine="20" fill="#F1F1F1" height="100.8281" id="sphere::Point" rx="2.5" ry="2.5" style="stroke:#181818;stroke-width:0.5;" width="64" x="187" y="298.26"/><ellipse cx="202" cy="314.26" fill="#ADD1B2" rx="11" ry="11" style="stroke:#181818;stroke-width:1.0;"/><path d="M204.7656,310.135 Q204.9219,309.9163 205.1094,309.8069 Q205.2969,309.6975 205.5156,309.6975 Q205.8906,309.6975 206.125,309.9553 Q206.3594,310.2131 206.3594,310.8225 L206.3594,312.2756 Q206.3594,312.885 206.125,313.1506 Q205.8906,313.4163 205.5156,313.4163 Q205.1719,313.4163 204.9688,313.2131 Q204.7656,313.0256 204.6563,312.51 Q204.6094,312.1506 204.4219,311.9631 Q204.0938,311.5881 203.4844,311.3694 Q202.875,311.1506 202.25,311.1506 Q201.4844,311.1506 200.8516,311.4788 Q200.2188,311.8069 199.7266,312.5569 Q199.2344,313.3069 199.2344,314.3381 L199.2344,315.4319 Q199.2344,316.6663 200.125,317.4866 Q201.0156,318.3069 202.6094,318.3069 Q203.5469,318.3069 204.2031,318.0569 Q204.5938,317.9006 205.0156,317.4631 Q205.2813,317.1975 205.4297,317.1194 Q205.5781,317.0413 205.7813,317.0413 Q206.1094,317.0413 206.3672,317.2991 Q206.625,317.5569 206.625,317.9006 Q206.625,318.2444 206.2813,318.6506 Q205.7813,319.2288 204.9844,319.5569 Q203.9063,320.01 202.6094,320.01 Q201.0938,320.01 199.8906,319.385 Q198.9063,318.885 198.2188,317.8147 Q197.5313,316.7444 197.5313,315.4631 L197.5313,314.3069 Q197.5313,312.9788 198.1484,311.8303 Q198.7656,310.6819 199.8594,310.0647 Q200.9531,309.4475 202.1875,309.4475 Q202.9219,309.4475 203.5703,309.6116 Q204.2188,309.7756 204.7656,310.135 Z " fill="#000000"/><text fill="#000000" font-family="sans-serif" font-size="14" lengthAdjust="spacing" textLength="32" x="216" y="319.9885">Point</text><line style="stroke:#181818;stroke-width:0.5;" x1="188" x2="250" y1="330.26" y2="330.26"/><rect fill="none" height="6" style="stroke:#C82930;stroke-width:1.0;" width="6" x="195" y="341.5647"/><text fill="#000000" font-family="sans-serif" font-size="14" lengthAdjust="spacing" textLength="6" x="207" y="348.7932">x</text><rect fill="none" height="6" style="stroke:#C82930;stroke-width:1.0;" width="6" x="195" y="359.1741"/><text fill="#000000" font-family="sans-serif" font-size="14" lengthAdjust="spacing" textLength="7" x="207" y="366.4026">y</text><rect fill="none" height="6" style="stroke:#C82930;stroke-width:1.0;" width="6" x="195" y="376.7834"/><text fill="#000000" font-family="sans-serif" font-size="14" lengthAdjust="spacing" textLength="6" x="207" y="384.012">z</text><line style="stroke:#181818;stroke-width:0.5;" x1="188" x2="250" y1="391.0881" y2="391.0881"/></g><!--MD5=[48c4272d4d02bc9233854e136dea42a8]
class sphere::great_circle--><g id="elem_sphere::great_circle"><rect fill="#F1F1F1" height="48" id="sphere::great_circle" rx="2.5" ry="2.5" style="stroke:#181818;stroke-width:0.5;" width="106" x="22" y="324.26"/><ellipse cx="37" cy="340.26" fill="#ADD1B2" rx="11" ry="11" style="stroke:#181818;stroke-width:1.0;"/><path d="M39.7656,336.135 Q39.9219,335.9163 40.1094,335.8069 Q40.2969,335.6975 40.5156,335.6975 Q40.8906,335.6975 41.125,335.9553 Q41.3594,336.2131 41.3594,336.8225 L41.3594,338.2756 Q41.3594,338.885 41.125,339.1506 Q40.8906,339.4163 40.5156,339.4163 Q40.1719,339.4163 39.9688,339.2131 Q39.7656,339.0256 39.6563,338.51 Q39.6094,338.1506 39.4219,337.9631 Q39.0938,337.5881 38.4844,337.3694 Q37.875,337.1506 37.25,337.1506 Q36.4844,337.1506 35.8516,337.4788 Q35.2188,337.8069 34.7266,338.5569 Q34.2344,339.3069 34.2344,340.3381 L34.2344,341.4319 Q34.2344,342.6663 35.125,343.4866 Q36.0156,344.3069 37.6094,344.3069 Q38.5469,344.3069 39.2031,344.0569 Q39.5938,343.9006 40.0156,343.4631 Q40.2813,343.1975 40.4297,343.1194 Q40.5781,343.0413 40.7813,343.0413 Q41.1094,343.0413 41.3672,343.2991 Q41.625,343.5569 41.625,343.9006 Q41.625,344.2444 41.2813,344.6506 Q40.7813,345.2288 39.9844,345.5569 Q38.9063,346.01 37.6094,346.01 Q36.0938,346.01 34.8906,345.385 Q33.9063,344.885 33.2188,343.8147 Q32.5313,342.7444 32.5313,341.4631 L32.5313,340.3069 Q32.5313,338.9788 33.1484,337.8303 Q33.7656,336.6819 34.8594,336.0647 Q35.9531,335.4475 37.1875,335.4475 Q37.9219,335.4475 38.5703,335.6116 Q39.2188,335.7756 39.7656,336.135 Z " fill="#000000"/><text fill="#000000" font-family="sans-serif" font-size="14" lengthAdjust="spacing" textLength="74" x="51" y="345.9885">great_circle</text><line style="stroke:#181818;stroke-width:0.5;" x1="23" x2="127" y1="356.26" y2="356.26"/><line style="stroke:#181818;stroke-width:0.5;" x1="23" x2="127" y1="364.26" y2="364.26"/></g><!--MD5=[2ae1951aede16c8b409fd392d993d863]
class latlong::LatLong--><g id="elem_latlong::LatLong"><rect codeLine="36" fill="#F1F1F1" height="83.2188" id="latlong::LatLong" rx="2.5" ry="2.5" style="stroke:#181818;stroke-width:0.5;" width="84" x="355" y="306.76"/><ellipse cx="370" cy="322.76" fill="#ADD1B2" rx="11" ry="11" style="stroke:#181818;stroke-width:1.0;"/><path d="M372.7656,318.635 Q372.9219,318.4163 373.1094,318.3069 Q373.2969,318.1975 373.5156,318.1975 Q373.8906,318.1975 374.125,318.4553 Q374.3594,318.7131 374.3594,319.3225 L374.3594,320.7756 Q374.3594,321.385 374.125,321.6506 Q373.8906,321.9163 373.5156,321.9163 Q373.1719,321.9163 372.9688,321.7131 Q372.7656,321.5256 372.6563,321.01 Q372.6094,320.6506 372.4219,320.4631 Q372.0938,320.0881 371.4844,319.8694 Q370.875,319.6506 370.25,319.6506 Q369.4844,319.6506 368.8516,319.9788 Q368.2188,320.3069 367.7266,321.0569 Q367.2344,321.8069 367.2344,322.8381 L367.2344,323.9319 Q367.2344,325.1663 368.125,325.9866 Q369.0156,326.8069 370.6094,326.8069 Q371.5469,326.8069 372.2031,326.5569 Q372.5938,326.4006 373.0156,325.9631 Q373.2813,325.6975 373.4297,325.6194 Q373.5781,325.5413 373.7813,325.5413 Q374.1094,325.5413 374.3672,325.7991 Q374.625,326.0569 374.625,326.4006 Q374.625,326.7444 374.2813,327.1506 Q373.7813,327.7288 372.9844,328.0569 Q371.9063,328.51 370.6094,328.51 Q369.0938,328.51 367.8906,327.885 Q366.9063,327.385 366.2188,326.3147 Q365.5313,325.2444 365.5313,323.9631 L365.5313,322.8069 Q365.5313,321.4788 366.1484,320.3303 Q366.7656,319.1819 367.8594,318.5647 Q368.9531,317.9475 370.1875,317.9475 Q370.9219,317.9475 371.5703,318.1116 Q372.2188,318.2756 372.7656,318.635 Z " fill="#000000"/><text fill="#000000" font-family="sans-serif" font-size="14" lengthAdjust="spacing" textLength="52" x="384" y="328.4885">LatLong</text><line style="stroke:#181818;stroke-width:0.5;" x1="356" x2="438" y1="338.76" y2="338.76"/><rect fill="none" height="6" style="stroke:#C82930;stroke-width:1.0;" width="6" x="363" y="350.0647"/><text fill="#000000" font-family="sans-serif" font-size="14" lengthAdjust="spacing" textLength="15" x="375" y="357.2932">lat</text><rect fill="none" height="6" style="stroke:#C82930;stroke-width:1.0;" width="6" x="363" y="367.6741"/><text fill="#000000" font-family="sans-serif" font-size="14" lengthAdjust="spacing" textLength="19" x="375" y="374.9026">lon</text><line style="stroke:#181818;stroke-width:0.5;" x1="356" x2="438" y1="381.9788" y2="381.9788"/></g><!--MD5=[e5cc761b179243d731727e21c0f86b96]
class latlong::LatLongs--><g id="elem_latlong::LatLongs"><rect fill="#F1F1F1" height="48" id="latlong::LatLongs" rx="2.5" ry="2.5" style="stroke:#181818;stroke-width:0.5;" width="91" x="341.5" y="135.04"/><ellipse cx="356.5" cy="151.04" fill="#ADD1B2" rx="11" ry="11" style="stroke:#181818;stroke-width:1.0;"/><path d="M359.2656,146.915 Q359.4219,146.6962 359.6094,146.5869 Q359.7969,146.4775 360.0156,146.4775 Q360.3906,146.4775 360.625,146.7353 Q360.8594,146.9931 360.8594,147.6025 L360.8594,149.0556 Q360.8594,149.665 360.625,149.9306 Q360.3906,150.1962 360.0156,150.1962 Q359.6719,150.1962 359.4688,149.9931 Q359.2656,149.8056 359.1563,149.29 Q359.1094,148.9306 358.9219,148.7431 Q358.5938,148.3681 357.9844,148.1494 Q357.375,147.9306 356.75,147.9306 Q355.9844,147.9306 355.3516,148.2587 Q354.7188,148.5869 354.2266,149.3369 Q353.7344,150.0869 353.7344,151.1181 L353.7344,152.2119 Q353.7344,153.4462 354.625,154.2666 Q355.5156,155.0869 357.1094,155.0869 Q358.0469,155.0869 358.7031,154.8369 Q359.0938,154.6806 359.5156,154.2431 Q359.7813,153.9775 359.9297,153.8994 Q360.0781,153.8212 360.2813,153.8212 Q360.6094,153.8212 360.8672,154.0791 Q361.125,154.3369 361.125,154.6806 Q361.125,155.0244 360.7813,155.4306 Q360.2813,156.0087 359.4844,156.3369 Q358.4063,156.79 357.1094,156.79 Q355.5938,156.79 354.3906,156.165 Q353.4063,155.665 352.7188,154.5947 Q352.0313,153.5244 352.0313,152.2431 L352.0313,151.0869 Q352.0313,149.7587 352.6484,148.6103 Q353.2656,147.4619 354.3594,146.8447 Q355.4531,146.2275 356.6875,146.2275 Q357.4219,146.2275 358.0703,146.3916 Q358.7188,146.5556 359.2656,146.915 Z " fill="#000000"/><text fill="#000000" font-family="sans-serif" font-size="14" lengthAdjust="spacing" textLength="59" x="370.5" y="156.7685">LatLongs</text><line style="stroke:#181818;stroke-width:0.5;" x1="342.5" x2="431.5" y1="167.04" y2="167.04"/><line style="stroke:#181818;stroke-width:0.5;" x1="342.5" x2="431.5" y1="175.04" y2="175.04"/></g><!--MD5=[3310a92bfac00a7c4d792d6d825e53fe]
class trig::Angle--><g id="elem_trig::Angle"><rect codeLine="45" fill="#F1F1F1" height="83.2188" id="trig::Angle" rx="2.5" ry="2.5" style="stroke:#181818;stroke-width:0.5;" width="68" x="273" y="494.26"/><ellipse cx="288" cy="510.26" fill="#ADD1B2" rx="11" ry="11" style="stroke:#181818;stroke-width:1.0;"/><path d="M290.7656,506.135 Q290.9219,505.9163 291.1094,505.8069 Q291.2969,505.6975 291.5156,505.6975 Q291.8906,505.6975 292.125,505.9553 Q292.3594,506.2131 292.3594,506.8225 L292.3594,508.2756 Q292.3594,508.885 292.125,509.1506 Q291.8906,509.4163 291.5156,509.4163 Q291.1719,509.4163 290.9688,509.2131 Q290.7656,509.0256 290.6563,508.51 Q290.6094,508.1506 290.4219,507.9631 Q290.0938,507.5881 289.4844,507.3694 Q288.875,507.1506 288.25,507.1506 Q287.4844,507.1506 286.8516,507.4788 Q286.2188,507.8069 285.7266,508.5569 Q285.2344,509.3069 285.2344,510.3381 L285.2344,511.4319 Q285.2344,512.6663 286.125,513.4866 Q287.0156,514.3069 288.6094,514.3069 Q289.5469,514.3069 290.2031,514.0569 Q290.5938,513.9006 291.0156,513.4631 Q291.2813,513.1975 291.4297,513.1194 Q291.5781,513.0413 291.7813,513.0413 Q292.1094,513.0413 292.3672,513.2991 Q292.625,513.5569 292.625,513.9006 Q292.625,514.2444 292.2813,514.6506 Q291.7813,515.2288 290.9844,515.5569 Q289.9063,516.01 288.6094,516.01 Q287.0938,516.01 285.8906,515.385 Q284.9063,514.885 284.2188,513.8147 Q283.5313,512.7444 283.5313,511.4631 L283.5313,510.3069 Q283.5313,508.9788 284.1484,507.8303 Q284.7656,506.6819 285.8594,506.0647 Q286.9531,505.4475 288.1875,505.4475 Q288.9219,505.4475 289.5703,505.6116 Q290.2188,505.7756 290.7656,506.135 Z " fill="#000000"/><text fill="#000000" font-family="sans-serif" font-size="14" lengthAdjust="spacing" textLength="36" x="302" y="515.9885">Angle</text><line style="stroke:#181818;stroke-width:0.5;" x1="274" x2="340" y1="526.26" y2="526.26"/><rect fill="none" height="6" style="stroke:#C82930;stroke-width:1.0;" width="6" x="281" y="537.5647"/><text fill="#000000" font-family="sans-serif" font-size="14" lengthAdjust="spacing" textLength="18" x="293" y="544.7932">sin</text><rect fill="none" height="6" style="stroke:#C82930;stroke-width:1.0;" width="6" x="281" y="555.1741"/><text fill="#000000" font-family="sans-serif" font-size="14" lengthAdjust="spacing" textLength="22" x="293" y="562.4026">cos</text><line style="stroke:#181818;stroke-width:0.5;" x1="274" x2="340" y1="569.4788" y2="569.4788"/></g><!--MD5=[7efcc6422f2e61fc3b34312dbed09f98]
class trig::UnitNegRange--><g id="elem_trig::UnitNegRange"><rect codeLine="49" fill="#F1F1F1" height="48" id="trig::UnitNegRange" rx="2.5" ry="2.5" style="stroke:#181818;stroke-width:0.5;" width="123" x="195.5" y="657.48"/><ellipse cx="210.5" cy="673.48" fill="#ADD1B2" rx="11" ry="11" style="stroke:#181818;stroke-width:1.0;"/><path d="M213.2656,669.355 Q213.4219,669.1363 213.6094,669.0269 Q213.7969,668.9175 214.0156,668.9175 Q214.3906,668.9175 214.625,669.1753 Q214.8594,669.4331 214.8594,670.0425 L214.8594,671.4956 Q214.8594,672.105 214.625,672.3706 Q214.3906,672.6363 214.0156,672.6363 Q213.6719,672.6363 213.4688,672.4331 Q213.2656,672.2456 213.1563,671.73 Q213.1094,671.3706 212.9219,671.1831 Q212.5938,670.8081 211.9844,670.5894 Q211.375,670.3706 210.75,670.3706 Q209.9844,670.3706 209.3516,670.6988 Q208.7188,671.0269 208.2266,671.7769 Q207.7344,672.5269 207.7344,673.5581 L207.7344,674.6519 Q207.7344,675.8863 208.625,676.7066 Q209.5156,677.5269 211.1094,677.5269 Q212.0469,677.5269 212.7031,677.2769 Q213.0938,677.1206 213.5156,676.6831 Q213.7813,676.4175 213.9297,676.3394 Q214.0781,676.2613 214.2813,676.2613 Q214.6094,676.2613 214.8672,676.5191 Q215.125,676.7769 215.125,677.1206 Q215.125,677.4644 214.7813,677.8706 Q214.2813,678.4488 213.4844,678.7769 Q212.4063,679.23 211.1094,679.23 Q209.5938,679.23 208.3906,678.605 Q207.4063,678.105 206.7188,677.0347 Q206.0313,675.9644 206.0313,674.6831 L206.0313,673.5269 Q206.0313,672.1988 206.6484,671.0503 Q207.2656,669.9019 208.3594,669.2847 Q209.4531,668.6675 210.6875,668.6675 Q211.4219,668.6675 212.0703,668.8316 Q212.7188,668.9956 213.2656,669.355 Z " fill="#000000"/><text fill="#000000" font-family="sans-serif" font-size="14" lengthAdjust="spacing" textLength="91" x="224.5" y="679.2085">UnitNegRange</text><line style="stroke:#181818;stroke-width:0.5;" x1="196.5" x2="317.5" y1="689.48" y2="689.48"/><line style="stroke:#181818;stroke-width:0.5;" x1="196.5" x2="317.5" y1="697.48" y2="697.48"/></g><!--MD5=[35f8ec8c418f9d75999e1d8ae31f5f0e]
class trig::Degrees--><g id="elem_trig::Degrees"><rect codeLine="50" fill="#F1F1F1" height="48" id="trig::Degrees" rx="2.5" ry="2.5" style="stroke:#181818;stroke-width:0.5;" width="86" x="376" y="511.87"/><ellipse cx="391" cy="527.87" fill="#ADD1B2" rx="11" ry="11" style="stroke:#181818;stroke-width:1.0;"/><path d="M393.7656,523.745 Q393.9219,523.5263 394.1094,523.4169 Q394.2969,523.3075 394.5156,523.3075 Q394.8906,523.3075 395.125,523.5653 Q395.3594,523.8231 395.3594,524.4325 L395.3594,525.8856 Q395.3594,526.495 395.125,526.7606 Q394.8906,527.0263 394.5156,527.0263 Q394.1719,527.0263 393.9688,526.8231 Q393.7656,526.6356 393.6563,526.12 Q393.6094,525.7606 393.4219,525.5731 Q393.0938,525.1981 392.4844,524.9794 Q391.875,524.7606 391.25,524.7606 Q390.4844,524.7606 389.8516,525.0888 Q389.2188,525.4169 388.7266,526.1669 Q388.2344,526.9169 388.2344,527.9481 L388.2344,529.0419 Q388.2344,530.2763 389.125,531.0966 Q390.0156,531.9169 391.6094,531.9169 Q392.5469,531.9169 393.2031,531.6669 Q393.5938,531.5106 394.0156,531.0731 Q394.2813,530.8075 394.4297,530.7294 Q394.5781,530.6513 394.7813,530.6513 Q395.1094,530.6513 395.3672,530.9091 Q395.625,531.1669 395.625,531.5106 Q395.625,531.8544 395.2813,532.2606 Q394.7813,532.8388 393.9844,533.1669 Q392.9063,533.62 391.6094,533.62 Q390.0938,533.62 388.8906,532.995 Q387.9063,532.495 387.2188,531.4247 Q386.5313,530.3544 386.5313,529.0731 L386.5313,527.9169 Q386.5313,526.5888 387.1484,525.4403 Q387.7656,524.2919 388.8594,523.6747 Q389.9531,523.0575 391.1875,523.0575 Q391.9219,523.0575 392.5703,523.2216 Q393.2188,523.3856 393.7656,523.745 Z " fill="#000000"/><text fill="#000000" font-family="sans-serif" font-size="14" lengthAdjust="spacing" textLength="54" x="405" y="533.5985">Degrees</text><line style="stroke:#181818;stroke-width:0.5;" x1="377" x2="461" y1="543.87" y2="543.87"/><line style="stroke:#181818;stroke-width:0.5;" x1="377" x2="461" y1="551.87" y2="551.87"/></g><!--MD5=[8d63ce375f8202243260e9b9cfa2de59]
class trig::Radians--><g id="elem_trig::Radians"><rect codeLine="51" fill="#F1F1F1" height="48" id="trig::Radians" rx="2.5" ry="2.5" style="stroke:#181818;stroke-width:0.5;" width="84" x="378" y="657.48"/><ellipse cx="393" cy="673.48" fill="#ADD1B2" rx="11" ry="11" style="stroke:#181818;stroke-width:1.0;"/><path d="M395.7656,669.355 Q395.9219,669.1363 396.1094,669.0269 Q396.2969,668.9175 396.5156,668.9175 Q396.8906,668.9175 397.125,669.1753 Q397.3594,669.4331 397.3594,670.0425 L397.3594,671.4956 Q397.3594,672.105 397.125,672.3706 Q396.8906,672.6363 396.5156,672.6363 Q396.1719,672.6363 395.9688,672.4331 Q395.7656,672.2456 395.6563,671.73 Q395.6094,671.3706 395.4219,671.1831 Q395.0938,670.8081 394.4844,670.5894 Q393.875,670.3706 393.25,670.3706 Q392.4844,670.3706 391.8516,670.6988 Q391.2188,671.0269 390.7266,671.7769 Q390.2344,672.5269 390.2344,673.5581 L390.2344,674.6519 Q390.2344,675.8863 391.125,676.7066 Q392.0156,677.5269 393.6094,677.5269 Q394.5469,677.5269 395.2031,677.2769 Q395.5938,677.1206 396.0156,676.6831 Q396.2813,676.4175 396.4297,676.3394 Q396.5781,676.2613 396.7813,676.2613 Q397.1094,676.2613 397.3672,676.5191 Q397.625,676.7769 397.625,677.1206 Q397.625,677.4644 397.2813,677.8706 Q396.7813,678.4488 395.9844,678.7769 Q394.9063,679.23 393.6094,679.23 Q392.0938,679.23 390.8906,678.605 Q389.9063,678.105 389.2188,677.0347 Q388.5313,675.9644 388.5313,674.6831 L388.5313,673.5269 Q388.5313,672.1988 389.1484,671.0503 Q389.7656,669.9019 390.8594,669.2847 Q391.9531,668.6675 393.1875,668.6675 Q393.9219,668.6675 394.5703,668.8316 Q395.2188,668.9956 395.7656,669.355 Z " fill="#000000"/><text fill="#000000" font-family="sans-serif" font-size="14" lengthAdjust="spacing" textLength="52" x="407" y="679.2085">Radians</text><line style="stroke:#181818;stroke-width:0.5;" x1="379" x2="461" y1="689.48" y2="689.48"/><line style="stroke:#181818;stroke-width:0.5;" x1="379" x2="461" y1="697.48" y2="697.48"/></g><!--MD5=[5184b1cda9cdaf36cef8de19ba1cccaf]
link sphere::ArcString to sphere::Arc--><g id="link_sphere::ArcString_sphere::Arc"><path codeLine="26" d="M145.27,159.04 C156.9,159.04 168.53,159.04 180.15,159.04 " fill="none" id="sphere::ArcString-sphere::Arc" style="stroke:#181818;stroke-width:1.0;stroke-dasharray:7.0,7.0;"/></g><!--MD5=[049d2ab60b0e683e8f8acdf77c648d47]
reverse link sphere::ArcString to sphere::Point--><g id="link_sphere::ArcString_sphere::Point"><path codeLine="27" d="M135.86,221.73 C152.49,246.84 171.42,275.42 187.01,298.97 " fill="none" id="sphere::ArcString-backto-sphere::Point" style="stroke:#181818;stroke-width:1.0;"/><polygon fill="#181818" points="128.74,210.98,128.718,218.1911,135.3659,220.9849,135.3879,213.7738,128.74,210.98" style="stroke:#181818;stroke-width:1.0;"/><text fill="#000000" font-family="sans-serif" font-size="13" lengthAdjust="spacing" textLength="20" x="160.3178" y="287.2965">2..*</text></g><!--MD5=[d005847434b73ceb9f5f2782ae113f25]
link sphere::ArcString to sphere::great_circle--><g id="link_sphere::ArcString_sphere::great_circle"><path codeLine="28" d="M89.69,209.72 C85.75,246.66 80.54,295.41 77.5,323.85 " fill="none" id="sphere::ArcString-sphere::great_circle" style="stroke:#181818;stroke-width:1.0;stroke-dasharray:7.0,7.0;"/></g><!--MD5=[d7951c2b947da03a220742bbe8f07448]
link sphere::Arc to sphere::great_circle--><g id="link_sphere::Arc_sphere::great_circle"><path codeLine="29" d="M180.2,215.96 C151.19,252.16 114.95,297.4 93.46,324.22 " fill="none" id="sphere::Arc-sphere::great_circle" style="stroke:#181818;stroke-width:1.0;stroke-dasharray:7.0,7.0;"/></g><!--MD5=[b524854aaf7ea8fef8c3603a0a1fcea5]
link sphere::great_circle to sphere::Point--><g id="link_sphere::great_circle_sphere::Point"><path codeLine="30" d="M128.47,348.26 C148.22,348.26 170.03,348.26 187.18,348.26 " fill="none" id="sphere::great_circle-sphere::Point" style="stroke:#181818;stroke-width:1.0;"/></g><!--MD5=[fe80ff692700e1633019da29687867d9]
reverse link sphere::Arc to sphere::Point--><g id="link_sphere::Arc_sphere::Point"><path codeLine="32" d="M222.66,232.99 C221.96,254.9 221.21,278.4 220.57,298.35 " fill="none" id="sphere::Arc-backto-sphere::Point" style="stroke:#181818;stroke-width:1.0;"/><polygon fill="#181818" points="223.08,220.02,218.8909,225.8895,222.6978,232.0139,226.8869,226.1444,223.08,220.02" style="stroke:#181818;stroke-width:1.0;"/><text fill="#000000" font-family="sans-serif" font-size="13" lengthAdjust="spacing" textLength="7" x="213.2865" y="287.3046">2</text></g><!--MD5=[eb8b840d1d55d8430c8e7ade697809b0]
reverse link latlong::LatLongs to latlong::LatLong--><g id="link_latlong::LatLongs_latlong::LatLong"><path codeLine="41" d="M389.01,197.71 C390.7,229.36 393.11,274.47 394.84,306.86 " fill="none" id="latlong::LatLongs-backto-latlong::LatLong" style="stroke:#181818;stroke-width:1.0;"/><polygon fill="#181818" points="388.33,184.89,384.6523,191.0928,388.9635,196.8733,392.6412,190.6705,388.33,184.89" style="stroke:#181818;stroke-width:1.0;"/><text fill="#000000" font-family="sans-serif" font-size="13" lengthAdjust="spacing" textLength="20" x="372.75" y="295.8759">2..*</text></g><!--MD5=[4425dc674207f8d6af5f2427e24350bf]
reverse link trig::Angle to trig::UnitNegRange--><g id="link_trig::Angle_trig::UnitNegRange"><path codeLine="53" d="M288.1,591.16 C280.1,614.13 271.22,639.65 265,657.51 " fill="none" id="trig::Angle-backto-trig::UnitNegRange" style="stroke:#181818;stroke-width:1.0;"/><polygon fill="#181818" points="292.31,579.07,286.5599,583.4216,288.3652,590.4031,294.1153,586.0515,292.31,579.07" style="stroke:#181818;stroke-width:1.0;"/><text fill="#000000" font-family="sans-serif" font-size="13" lengthAdjust="spacing" textLength="7" x="259.2094" y="646.4604">2</text></g><!--MD5=[2f24d7a1bec79fcf5bb243b2fef4c66c]
link trig::Angle to trig::Degrees--><g id="link_trig::Angle_trig::Degrees"><path codeLine="54" d="M341.12,535.87 C352.68,535.87 364.24,535.87 375.8,535.87 " fill="none" id="trig::Angle-trig::Degrees" style="stroke:#181818;stroke-width:1.0;stroke-dasharray:7.0,7.0;"/></g><!--MD5=[9568362e864cd65d99ec71e7fe724efe]
link trig::Angle to trig::Radians--><g id="link_trig::Angle_trig::Radians"><path codeLine="55" d="M339.08,577.64 C359.31,603.35 384.7,635.62 401.6,657.09 " fill="none" id="trig::Angle-trig::Radians" style="stroke:#181818;stroke-width:1.0;stroke-dasharray:7.0,7.0;"/></g><!--MD5=[a31233e542b01db123241a6207ad717f]
link sphere::ArcString to latlong::LatLongs--><g id="link_sphere::ArcString_latlong::LatLongs"><path codeLine="58" d="M113.19,108.14 C126.77,78.36 148.55,43.28 180.5,25.82 C216.77,6 235.97,8.5 273.5,25.82 C322.05,48.24 357.49,102.8 374.9,134.71 " fill="none" id="sphere::ArcString-latlong::LatLongs" style="stroke:#181818;stroke-width:1.0;stroke-dasharray:7.0,7.0;"/></g><!--MD5=[f5291ad11b9bb8ea011e83e868dfd32d]
link sphere::Arc to latlong::LatLong--><g id="link_sphere::Arc_latlong::LatLong"><path codeLine="59" d="M269.74,208.74 C297.81,239.3 333.57,278.21 360.02,307.01 " fill="none" id="sphere::Arc-latlong::LatLong" style="stroke:#181818;stroke-width:1.0;stroke-dasharray:7.0,7.0;"/><text fill="#000000" font-family="sans-serif" font-size="13" lengthAdjust="spacing" textLength="7" x="346.0625" y="296.0517">2</text></g><!--MD5=[a3c9d2f4311fc7cca0f5734e74ccb2c1]
link sphere::Point to latlong::LatLong--><g id="link_sphere::Point_latlong::LatLong"><path codeLine="60" d="M250.66,337.73 C279.61,334.17 323.24,333.81 355.14,336.66 " fill="none" id="sphere::Point-latlong::LatLong" style="stroke:#181818;stroke-width:1.0;stroke-dasharray:7.0,7.0;"/></g><!--MD5=[94b983ce224e7230f1a268da7dc3d4d7]
reverse link sphere::Point to trig::UnitNegRange--><g id="link_sphere::Point_trig::UnitNegRange"><path codeLine="61" d="M226.25,412.45 C234.83,487.24 248.68,607.92 254.4,657.8 " fill="none" id="sphere::Point-backto-trig::UnitNegRange" style="stroke:#181818;stroke-width:1.0;"/><polygon fill="#181818" points="224.78,399.64,221.492,406.0578,226.1515,411.5614,229.4395,405.1435,224.78,399.64" style="stroke:#181818;stroke-width:1.0;"/><text fill="#000000" font-family="sans-serif" font-size="13" lengthAdjust="spacing" textLength="7" x="245.6844" y="646.4346">3</text></g><!--MD5=[7d32dae83011ea8668cf6976563b486e]
reverse link latlong::LatLong to trig::Angle--><g id="link_latlong::LatLong_trig::Angle"><path codeLine="62" d="M371.23,402.42 C357.1,431.55 339.86,467.1 326.8,494.03 " fill="none" id="latlong::LatLong-backto-trig::Angle" style="stroke:#181818;stroke-width:1.0;"/><polygon fill="#181818" points="376.81,390.9,370.5934,394.5543,371.5757,401.6982,377.7923,398.0439,376.81,390.9" style="stroke:#181818;stroke-width:1.0;"/><text fill="#000000" font-family="sans-serif" font-size="13" lengthAdjust="spacing" textLength="7" x="322.4997" y="483.2996">2</text></g><!--MD5=[53dc5557161b59696f9f07e53758fe60]
@startuml

'Copyright (c) 2024 Via Technology Ltd. All Rights Reserved.

' title Sphere Class Diagram

set namespaceSeparator ::

    namespace sphere {
        class ArcString {
            - points
            - poles
            - arc_lengths
        }
        class Arc {
            - a
            - pole
            - length
            - half_width
        }
        class Point {
            - x
            - y
            - z
        }

        ArcString . Arc
        ArcString *- - "2..*" Point
        ArcString .. great_circle
        Arc .. great_circle
        great_circle - Point

        Arc *- - "2" Point
    }

    namespace latlong {
        class LatLong {
            - lat
            - lon
        }

        LatLongs *- - "2..*" LatLong
    }

    namespace trig {
        class Angle {
            - sin
            - cos
        }
        class UnitNegRange
        class Degrees
        class Radians

        Angle *- - "2" UnitNegRange
        Angle . Degrees
        Angle .. Radians
    }

    sphere::ArcString . latlong::LatLongs
    sphere::Arc . "2" latlong::LatLong
    sphere::Point . latlong::LatLong
    sphere::Point *- - "3" trig::UnitNegRange
    latlong::LatLong *- - "2" trig::Angle
@enduml

@startuml



set namespaceSeparator ::

    namespace sphere {
        class ArcString {
            - points
            - poles
            - arc_lengths
        }
        class Arc {
            - a
            - pole
            - length
            - half_width
        }
        class Point {
            - x
            - y
            - z
        }

        ArcString . Arc
        ArcString *- - "2..*" Point
        ArcString .. great_circle
        Arc .. great_circle
        great_circle - Point

        Arc *- - "2" Point
    }

    namespace latlong {
        class LatLong {
            - lat
            - lon
        }

        LatLongs *- - "2..*" LatLong
    }

    namespace trig {
        class Angle {
            - sin
            - cos
        }
        class UnitNegRange
        class Degrees
        class Radians

        Angle *- - "2" UnitNegRange
        Angle . Degrees
        Angle .. Radians
    }

    sphere::ArcString . latlong::LatLongs
    sphere::Arc . "2" latlong::LatLong
    sphere::Point . latlong::LatLong
    sphere::Point *- - "3" trig::UnitNegRange
    latlong::LatLong *- - "2" trig::Angle
@enduml

PlantUML version 1.2022.8(Sun Sep 25 10:00:33 BST 2022)
(GPL source distribution)
Java Runtime: Java(TM) SE Runtime Environment
JVM: Java HotSpot(TM) Client VM
Default Encoding: Cp1252
Language: en
Country: GB
--></g></svg>